HIERARCHY
ROOT SpineBase
{
  OFFSET 0.000000 0.000000 0.000000
  CHANNELS 6 Xposition Yposition Zposition Zrotation Xrotation Yrotation
  JOINT SpineMid
  {
    OFFSET 0.000000 33.249679 0.000000
    CHANNELS 3 Zrotation Xrotation Yrotation
    JOINT SpineShoulder
    {
      OFFSET -0.315790 24.740266 -0.651624
      CHANNELS 3 Zrotation Xrotation Yrotation
      JOINT Neck
      {
        OFFSET -0.226213 8.180052 -0.502330
        CHANNELS 3 Zrotation Xrotation Yrotation
        JOINT Head
        {
          OFFSET -6.283062 12.008107 6.364624
          CHANNELS 3 Zrotation Xrotation Yrotation
          End Site
          {
            OFFSET 0 0 0
          }
        }
      }
      JOINT ShoulderLeft
      {
        OFFSET -13.017380 -9.121675 -10.533476
        CHANNELS 3 Zrotation Xrotation Yrotation
        JOINT ElbowLeft
        {
          OFFSET 3.801653 -31.966935 -5.223025
          CHANNELS 3 Zrotation Xrotation Yrotation
          JOINT WristLeft
          {
            OFFSET -4.996230 -21.859985 7.242275
            CHANNELS 3 Zrotation Xrotation Yrotation
            JOINT HandLeft
            {
              OFFSET 3.323377 -2.787433 -0.404905
              CHANNELS 3 Zrotation Xrotation Yrotation
              JOINT HandTipLeft
              {
                OFFSET -1.200473 -4.342253 -0.932076
                CHANNELS 3 Zrotation Xrotation Yrotation
                End Site
                {
                  OFFSET 0 0 0
                }
              }
              JOINT ThumbLeft
              {
                OFFSET -3.637893 0.116038 -0.319295
                CHANNELS 3 Zrotation Xrotation Yrotation
                End Site
                {
                  OFFSET 0 0 0
                }
              }
            }
          }
        }
      }
      JOINT ShoulderRight
      {
        OFFSET 0.233071 -6.377845 -12.780818
        CHANNELS 3 Zrotation Xrotation Yrotation
        JOINT ElbowRight
        {
          OFFSET -3.819487 -24.492399 -4.108073
          CHANNELS 3 Zrotation Xrotation Yrotation
          JOINT WristRight
          {
            OFFSET -4.960839 -22.834040 4.089910
            CHANNELS 3 Zrotation Xrotation Yrotation
            JOINT HandRight
            {
              OFFSET -0.577006 -8.520145 3.103210
              CHANNELS 3 Zrotation Xrotation Yrotation
              JOINT HandTipRight
              {
                OFFSET -3.059915 -7.517329 0.048546
                CHANNELS 3 Zrotation Xrotation Yrotation
                End Site
                {
                  OFFSET 0 0 0
                }
              }
              JOINT ThumbRight
              {
                OFFSET 3.747655 0.424161 -3.022019
                CHANNELS 3 Zrotation Xrotation Yrotation
                End Site
                {
                  OFFSET 0 0 0
                }
              }
            }
          }
        }
      }
    }
  }
  JOINT HipLeft
  {
    OFFSET -8.140422 0.279674 -0.320356
    CHANNELS 3 Zrotation Xrotation Yrotation
    JOINT KneeLeft
    {
      OFFSET 13.906447 -39.939246 1.363203
      CHANNELS 3 Zrotation Xrotation Yrotation
      JOINT AnkleLeft
      {
        OFFSET 19.678985 -29.562161 8.652302
        CHANNELS 3 Zrotation Xrotation Yrotation
        JOINT FootLeft
        {
          OFFSET -10.031788 -6.149598 -10.142063
          CHANNELS 3 Zrotation Xrotation Yrotation
          End Site
          {
            OFFSET 0 0 0
          }
        }
      }
    }
  }
  JOINT HipRight
  {
    OFFSET 5.478100 1.153955 -5.979071
    CHANNELS 3 Zrotation Xrotation Yrotation
    JOINT KneeRight
    {
      OFFSET -2.769118 -45.417978 5.933327
      CHANNELS 3 Zrotation Xrotation Yrotation
      JOINT AnkleRight
      {
        OFFSET 9.550781 -28.970813 -3.039545
        CHANNELS 3 Zrotation Xrotation Yrotation
        JOINT FootRight
        {
          OFFSET -2.576156 -4.477545 -13.070417
          CHANNELS 3 Zrotation Xrotation Yrotation
          End Site
          {
            OFFSET 0 0 0
          }
        }
      }
    }
  }
}
MOTION
Frames: 13
Frame Time: 0.033333
130.495643 79.557788 316.997498 -0.000000 0.000000 22.563669 -0.000000 0.000000 -22.563669 -0.000000 0.000000 0.000000 -0.000000 0.000000 0.000000 0.000000 0.000000 0.000000 -0.000000 0.000000 0.000000 -0.000000 0.000000 0.000000 -0.000000 0.000000 0.000000 -0.000000 0.000000 0.000000 0.000000 0.000000 0.000000 0.000000 0.000000 0.000000 -0.000000 0.000000 0.000000 -0.000000 0.000000 0.000000 -0.000000 0.000000 0.000000 -0.000000 0.000000 0.000000 0.000000 0.000000 0.000000 0.000000 0.000000 0.000000 -0.000000 0.000000 -22.563669 -0.000000 0.000000 0.000000 -0.000000 0.000000 0.000000 0.000000 0.000000 0.000000 -0.000000 0.000000 -22.563669 -0.000000 0.000000 0.000000 -0.000000 0.000000 0.000000 0.000000 0.000000 0.000000
130.414718 79.419141 317.054154 0.025822 0.031693 22.826254 -0.036094 -0.019193 -22.826268 -0.000000 0.000000 0.000000 -0.000000 0.000000 0.000000 0.000000 0.000000 0.000000 -0.000000 0.000000 0.000000 -0.000000 0.000000 0.000000 0.106731 -0.726999 -0.881434 1.657083 -0.342635 0.801716 0.000000 0.000000 0.000000 0.000000 0.000000 0.000000 -0.000000 0.000000 0.000000 -0.000000 0.000000 0.000000 -0.000000 0.000000 0.000000 -0.249643 -0.763857 0.307368 0.000000 0.000000 0.000000 0.000000 0.000000 0.000000 0.380434 -0.724268 -22.970829 -0.658684 0.486583 0.150061 -1.453586 1.073108 0.637386 0.000000 0.000000 0.000000 -0.036094 -0.019193 -22.826268 -0.000000 0.000000 0.000000 -0.000000 0.000000 0.000000 0.000000 0.000000 0.000000
130.344157 79.273982 317.105858 0.058947 0.065596 23.069329 -0.079936 -0.037252 -23.069389 -0.000000 0.000000 0.000000 0.241425 0.883165 0.330574 0.000000 0.000000 0.000000 -0.000000 0.000000 0.000000 -0.000000 0.000000 0.000000 0.210060 -1.381176 -1.673951 3.005902 -0.674654 1.564895 0.000000 0.000000 0.000000 0.000000 0.000000 0.000000 -0.000000 0.000000 0.000000 0.900013 0.463288 0.057056 -0.989731 -1.791452 -0.008252 -0.388495 -0.045143 0.502037 0.000000 0.000000 0.000000 0.000000 0.000000 0.000000 0.696081 -1.346480 -23.330639 -1.851713 1.727275 0.672563 -2.056755 1.148353 0.764694 0.000000 0.000000 0.000000 -0.079936 -0.037252 -23.069389 -0.000000 0.000000 0.000000 -0.000000 0.000000 0.000000 0.000000 0.000000 0.000000
130.283958 79.122311 317.152610 0.099307 0.101684 23.293803 -0.131423 -0.054125 -23.293953 -0.000000 0.000000 0.000000 0.256525 1.225761 0.499257 0.000000 0.000000 0.000000 -0.000000 0.000000 0.000000 -0.000000 0.000000 0.000000 0.313696 -1.963113 -2.378800 3.977666 -0.984891 2.301265 0.000000 0.000000 0.000000 0.000000 0.000000 0.000000 -0.733785 -0.665605 0.222610 1.937602 1.286646 -0.173309 -1.379340 -2.413878 -0.033478 -0.507785 -0.059471 0.696909 0.000000 0.000000 0.000000 0.000000 0.000000 0.000000 0.955430 -1.875898 -23.648015 -2.629715 2.407210 0.948536 -2.770923 1.545181 1.015324 0.000000 0.000000 0.000000 -0.131423 -0.054125 -23.293953 -0.000000 0.000000 0.000000 -0.000000 0.000000 0.000000 0.000000 0.000000 0.000000
130.234123 78.964126 317.194410 0.146832 0.139931 23.500459 -0.190451 -0.069774 -23.500755 -0.000000 0.000000 0.000000 0.202214 1.502805 0.671241 0.000000 0.000000 0.000000 -0.000000 0.000000 0.000000 -0.000000 0.000000 0.000000 0.421116 -2.472980 -2.996585 4.516941 -1.264586 3.018653 0.000000 0.000000 0.000000 0.000000 0.000000 0.000000 -0.866083 -0.787737 0.262155 2.269695 1.527247 -0.214988 -1.698692 -2.847873 -0.072335 -0.582820 -0.090076 0.859566 0.000000 0.000000 0.000000 0.000000 0.000000 0.000000 1.165263 -2.319763 -23.926747 -3.314454 2.969153 1.179505 -3.281213 1.836173 1.179716 0.000000 0.000000 0.000000 -0.190451 -0.069774 -23.500755 -0.000000 0.000000 0.000000 -0.000000 0.000000 0.000000 0.000000 0.000000 0.000000
130.194651 78.799429 317.231257 0.201449 0.180310 23.689963 -0.256920 -0.084176 -23.690469 -0.000000 0.000000 0.000000 0.079155 1.714547 0.847000 0.000000 0.000000 0.000000 -0.000000 0.000000 0.000000 -0.000000 0.000000 0.000000 0.535625 -2.910408 -3.527183 4.585491 -1.508226 3.720534 0.000000 0.000000 0.000000 0.000000 0.000000 0.000000 -0.943774 -0.860967 0.285469 2.445762 1.675970 -0.244899 -1.947257 -3.090650 -0.124013 -0.617331 -0.147115 0.992305 0.000000 0.000000 0.000000 0.000000 0.000000 0.000000 1.331007 -2.683573 -24.169724 -3.908222 3.415064 1.362317 -3.592483 2.028997 1.259891 0.000000 0.000000 0.000000 -0.256920 -0.084176 -23.690469 -0.000000 0.000000 0.000000 -0.000000 0.000000 0.000000 0.000000 0.000000 0.000000
130.172351 78.593407 317.250791 0.279301 0.238499 23.892978 -0.351966 -0.104933 -23.893882 -0.000000 0.000000 0.000000 -0.235143 1.898938 1.113590 0.000000 0.000000 0.000000 -0.000000 0.000000 0.000000 -0.000000 0.000000 0.000000 0.391381 -3.106858 -3.749527 4.552401 -1.786160 4.125838 0.000000 0.000000 0.000000 0.000000 0.000000 0.000000 -0.987552 -0.917673 0.300845 2.599672 1.849579 -0.273869 -2.577505 -3.306703 -0.322381 -0.531488 0.326898 1.021291 0.000000 0.000000 0.000000 0.000000 0.000000 0.000000 1.692801 -3.524617 -24.512028 -5.239198 4.391687 1.750043 -3.849637 2.306714 1.244198 0.000000 0.000000 0.000000 -0.351966 -0.104933 -23.893882 -0.000000 0.000000 0.000000 -0.000000 0.000000 0.000000 0.000000 0.000000 0.000000
130.161400 78.411550 317.271192 0.360825 0.282212 23.955216 -0.444329 -0.111395 -23.956537 -0.000000 0.000000 0.000000 -0.496614 2.071941 1.346517 0.000000 0.000000 0.000000 -0.000000 0.000000 0.000000 -0.000000 0.000000 0.000000 0.353784 -3.482345 -4.195024 3.237712 -3.801956 5.636397 0.000000 0.000000 0.000000 0.000000 0.000000 0.000000 -0.976186 -0.967345 0.306380 2.428891 1.841933 -0.292799 -2.805976 -2.896867 -0.477819 0.125242 -0.376177 1.310358 0.000000 0.000000 0.000000 0.000000 0.000000 0.000000 1.482437 -3.081831 -24.469597 -4.742535 3.786454 1.474849 -3.437179 2.083178 1.163139 0.000000 0.000000 0.000000 -0.444329 -0.111395 -23.956537 -0.000000 0.000000 0.000000 -0.000000 0.000000 0.000000 0.000000 0.000000 0.000000
130.149932 78.233215 317.296100 0.435016 0.329860 24.088601 -0.531765 -0.123575 -24.090427 -0.000000 0.000000 0.000000 -0.812624 2.020195 1.493693 0.000000 0.000000 0.000000 -0.000000 0.000000 0.000000 -0.000000 0.000000 0.000000 0.530583 -3.655809 -4.414244 0.448342 -2.349829 5.961682 0.000000 0.000000 0.000000 0.000000 0.000000 0.000000 -0.895277 -0.950068 0.290956 1.862742 1.647608 -0.309580 -2.521094 -2.315946 -0.521849 -0.042352 -1.071252 1.517208 0.000000 0.000000 0.000000 0.000000 0.000000 0.000000 0.981611 -2.381701 -24.478609 -3.124548 2.699911 1.101755 -4.603881 2.983774 1.300856 0.000000 0.000000 0.000000 -0.531765 -0.123575 -24.090427 -0.000000 0.000000 0.000000 -0.000000 0.000000 0.000000 0.000000 0.000000 0.000000
130.143799 78.088889 317.319575 0.498907 0.373019 24.250757 -0.608093 -0.135173 -24.253099 0.654897 0.534234 0.051945 -1.649521 1.378184 1.470515 0.000000 0.000000 0.000000 -0.655409 -0.533605 -0.058050 -0.000000 0.000000 0.000000 0.993277 -4.051198 -4.912737 -2.302864 -1.323175 6.762143 0.000000 0.000000 0.000000 0.000000 0.000000 0.000000 -1.472680 -1.360419 0.194463 1.441629 1.351377 -0.288132 -1.915806 -1.784928 -0.410101 -0.619972 -1.178179 1.342291 0.000000 0.000000 0.000000 0.000000 0.000000 0.000000 1.694943 -3.510001 -24.796960 -5.747075 4.229629 1.614212 -2.418888 1.528119 0.725349 0.000000 0.000000 0.000000 -0.608093 -0.135173 -24.253099 0.810875 0.120809 -0.045992 -0.561662 -0.004818 -0.748531 0.000000 0.000000 0.000000
130.135377 77.998802 317.353133 0.543528 0.408056 24.362467 -0.663456 -0.147495 -24.365257 0.681549 0.556909 0.053950 -1.896128 1.060343 1.431502 0.000000 0.000000 0.000000 -0.682105 -0.556227 -0.060573 -0.000000 0.000000 0.000000 1.852665 -4.481473 -5.464023 -2.712815 -1.991343 7.589217 0.000000 0.000000 0.000000 0.000000 0.000000 0.000000 -1.413552 -1.223513 0.154800 0.733263 0.665208 -0.230990 -0.825159 -1.032793 -0.237143 -0.249196 -1.992606 1.432864 0.000000 0.000000 0.000000 0.000000 0.000000 0.000000 2.230005 -4.413325 -25.028522 -7.798493 5.458300 2.094066 -0.924416 0.464667 0.429765 0.000000 0.000000 0.000000 -0.663456 -0.147495 -24.365257 0.866367 0.058450 -0.071889 -0.494134 0.106081 -1.108349 0.000000 0.000000 0.000000
130.130077 77.941567 317.398702 0.580268 0.431869 24.457340 -0.707001 -0.152858 -24.460470 0.695917 0.564568 0.054928 -2.113991 0.527249 1.261741 0.000000 0.000000 0.000000 -0.696492 -0.563859 -0.061784 -0.000000 0.000000 0.000000 1.616902 -5.383047 -6.509502 -1.670644 -1.501226 8.588672 0.000000 0.000000 0.000000 0.000000 0.000000 0.000000 -1.351131 -1.098665 0.121906 0.655772 0.533340 -0.196240 -0.000000 0.000000 0.000000 0.121178 -3.337785 1.363603 0.000000 0.000000 0.000000 0.000000 0.000000 0.000000 2.598005 -5.063540 -25.206389 -9.269814 6.379363 2.502237 0.134052 -0.353661 0.215076 0.000000 0.000000 0.000000 -0.707001 -0.152858 -24.460470 0.888364 0.003883 -0.091722 -0.391780 0.206932 -1.476801 0.000000 0.000000 0.000000
130.126367 77.933479 317.450449 0.616449 0.446742 24.487407 -0.746173 -0.151022 -24.490794 0.716551 0.571730 0.056247 -2.259146 0.165531 1.137759 0.000000 0.000000 0.000000 -0.717148 -0.570981 -0.063395 -0.000000 0.000000 0.000000 1.489609 -6.506439 -7.828516 -2.140660 -0.322470 10.005957 0.000000 0.000000 0.000000 0.000000 0.000000 0.000000 -0.717148 -0.570981 -0.063395 -0.000000 0.000000 0.000000 0.592992 -0.598421 0.259203 0.499670 -2.631904 1.092773 0.000000 0.000000 0.000000 0.000000 0.000000 0.000000 2.795743 -5.497477 -25.300055 -10.202039 7.034274 2.821456 0.605943 -0.785203 0.158548 0.000000 0.000000 0.000000 -0.746173 -0.151022 -24.490794 0.907588 -0.008476 -0.097697 -0.293404 0.260378 -1.836364 0.000000 0.000000 0.000000
